<svg width="77" height="77" viewBox="0 0 77 77" fill="none" xmlns="http://www.w3.org/2000/svg">
<rect x="77" y="77" width="77" height="77" rx="6" transform="rotate(-180 77 77)" fill="#108A81"/>
<path d="M45.6595 49.2826C44.3662 50.4153 42.3371 50.4063 41.1273 49.2626L31.967 40.6026C30.7572 39.4589 30.8248 37.6135 32.1181 36.4809C33.4113 35.3483 35.4404 35.3573 36.6502 36.501L45.8106 45.161C47.0204 46.3047 46.9527 48.15 45.6595 49.2826Z" fill="white"/>
<path d="M31.967 40.6026C30.7572 39.4589 30.8248 37.6135 32.1181 36.4809L41.9103 27.9048C43.2035 26.7722 45.2326 26.7812 46.4424 27.9249C47.6522 29.0686 47.5846 30.914 46.2913 32.0466L36.4991 40.6226C35.2059 41.7553 33.1768 41.7463 31.967 40.6026Z" fill="white"/>
</svg>
