<svg width="206" height="206" viewBox="0 0 206 206" fill="none" xmlns="http://www.w3.org/2000/svg">
<rect x="0.571289" y="0.436523" width="205.429" height="205.429" rx="5" fill="#108A81"/>
<path d="M63.886 114.839H72.846V83.8632L73.486 80.0872L70.926 83.0952L63.886 88.1512L61.454 84.8872L75.534 74.0072H77.838V114.839H86.606V119.575H63.886V114.839ZM99.145 115.863C100.596 115.863 101.94 115.65 103.177 115.223C104.414 114.797 105.481 114.178 106.377 113.367C107.273 112.514 107.977 111.511 108.489 110.359C109.001 109.207 109.257 107.949 109.257 106.583C109.257 103.597 108.361 101.378 106.569 99.9272C104.82 98.4765 102.388 97.7512 99.273 97.7512H94.537V95.8952L103.753 81.6872L106.697 78.8712L102.537 79.5112H89.865V74.7752H112.713V76.6312L102.537 91.9272L100.297 93.7832V93.9112L102.473 93.4632C104.18 93.5059 105.758 93.8259 107.209 94.4232C108.66 94.9779 109.918 95.8099 110.985 96.9192C112.052 97.9859 112.884 99.2872 113.481 100.823C114.078 102.317 114.377 104.023 114.377 105.943C114.377 108.247 113.972 110.295 113.161 112.087C112.35 113.879 111.241 115.394 109.833 116.631C108.468 117.826 106.846 118.743 104.969 119.383C103.092 120.023 101.108 120.343 99.017 120.343C97.097 120.343 95.369 120.194 93.833 119.895C92.297 119.597 90.953 119.213 89.801 118.743L91.145 114.199C92.1263 114.669 93.2783 115.074 94.601 115.415C95.9663 115.714 97.481 115.863 99.145 115.863ZM116.676 97.1752C116.676 89.4952 117.913 83.7139 120.388 79.8312C122.905 75.9485 126.553 74.0072 131.332 74.0072C136.495 74.0072 140.228 75.9272 142.532 79.7672C144.879 83.5645 146.052 89.3672 146.052 97.1752C146.052 104.855 144.793 110.637 142.276 114.519C139.801 118.402 136.153 120.343 131.332 120.343C126.255 120.343 122.543 118.317 120.196 114.263C117.849 110.21 116.676 104.514 116.676 97.1752ZM121.988 97.1752C121.988 99.9485 122.159 102.487 122.5 104.791C122.884 107.053 123.46 109.015 124.228 110.679C124.996 112.301 125.956 113.581 127.108 114.519C128.303 115.415 129.711 115.863 131.332 115.863C134.575 115.863 136.943 114.37 138.436 111.383C139.972 108.354 140.74 103.618 140.74 97.1752C140.74 94.4445 140.569 91.9272 140.228 89.6232C139.929 87.3192 139.396 85.3352 138.628 83.6712C137.903 82.0072 136.943 80.7272 135.748 79.8312C134.553 78.9352 133.081 78.4872 131.332 78.4872C128.132 78.4872 125.764 80.0019 124.228 83.0312C122.735 86.0605 121.988 90.7752 121.988 97.1752Z" fill="white"/>
</svg>
