<svg width="23" height="17" viewBox="0 0 23 17" fill="none" xmlns="http://www.w3.org/2000/svg">
<path d="M22.4863 14.8697C22.4863 10.4803 22.4863 6.09149 22.4863 1.70213C22.477 1.68298 22.4616 1.66436 22.4588 1.64468C22.3224 0.698291 21.4732 -0.0177521 20.3864 0.000335169C19.5157 0.0146986 18.6445 0.00299604 17.7733 0.00299604C12.5477 0.00299604 7.32205 0.00246295 2.09587 0.00352691C0.874853 0.00405889 0.0058403 0.809475 0.00419044 1.96759C-0.00185966 6.1798 -0.00240898 10.3915 0.0107918 14.6037C0.0118904 14.8979 0.0861416 15.216 0.216494 15.4809C0.591049 16.2416 1.26096 16.5688 2.11787 16.5688C8.19986 16.5683 14.2819 16.5683 20.3638 16.5683C20.415 16.5683 20.4661 16.5693 20.5173 16.5672C21.1509 16.5401 21.6734 16.3023 22.0716 15.815C22.3015 15.5346 22.4027 15.2069 22.4863 14.8697ZM20.2208 1.28772C17.198 4.18594 14.2082 7.05331 11.2414 9.89727C8.26036 7.01554 5.29472 4.14817 2.33568 1.28772C8.26311 1.28772 14.2148 1.28772 20.2208 1.28772ZM13.8182 9.17111C15.9599 11.2426 18.0566 13.27 20.1339 15.2793C14.2186 15.2793 8.26256 15.2793 2.34778 15.2793C4.42131 13.2732 6.50804 11.2549 8.62007 9.21154C8.65307 9.25038 8.69817 9.31528 8.75427 9.37007C9.39503 9.99143 10.0352 10.6128 10.6799 11.2309C11.017 11.5544 11.3778 11.5528 11.7199 11.2341C11.8673 11.0963 12.0131 10.957 12.1561 10.8155C12.7187 10.2601 13.2803 9.70363 13.8182 9.17111ZM21.1509 2.1889C21.1509 6.27236 21.1509 10.3074 21.1509 14.343C19.046 12.3082 16.951 10.2819 14.8412 8.24175C16.9307 6.23725 19.0273 4.22584 21.1509 2.1889ZM7.56405 8.26409C5.48282 10.2771 3.39774 12.2938 1.33466 14.2887C1.33466 10.2984 1.33466 6.26545 1.33466 2.2389C3.42194 4.25776 5.50482 6.27236 7.56405 8.26409Z" fill="white"/>
</svg>
